<svg width="74" height="76" viewBox="0 0 74 76" fill="none" xmlns="http://www.w3.org/2000/svg">
<g filter="url(#filter0_d_19_259)">
<rect x="4" y="0.549316" width="65.2051" height="66.5924" rx="13" fill="#F0BB1F"/>
<path d="M22.791 24.794C22.3795 24.794 22.0429 24.4574 22.0354 24.0459V19.3405C22.0354 18.9216 22.3721 18.585 22.791 18.585H27.4964C27.9078 18.585 28.2445 18.9216 28.2445 19.3405V20.9788H46.3479V19.3405C46.3479 18.9291 46.6845 18.5924 47.096 18.585H51.8014C52.2128 18.585 52.5495 18.9216 52.5569 19.3405V24.0459C52.5569 24.4574 52.2203 24.794 51.8014 24.794H50.1631V42.8974H51.8014C52.2128 42.8974 52.5495 43.2341 52.5569 43.6455V48.3509C52.5569 48.7624 52.2203 49.099 51.8014 49.1065H47.096C46.6845 49.1065 46.3479 48.7698 46.3479 48.3509V46.7126H28.2445V48.3509C28.2445 48.7624 27.9078 49.099 27.4964 49.1065H22.791C22.3795 49.1065 22.0429 48.7698 22.0354 48.3509V43.6455C22.0354 43.2341 22.3721 42.8974 22.791 42.8974H24.4293V24.794H22.791ZM51.0608 23.2978V20.0811H47.8441V23.2978H51.0608ZM47.8441 47.6103H51.0608V44.3936H47.8441V47.6103ZM28.2445 43.6455V45.2165H46.3479V43.6455C46.3479 43.2341 46.6845 42.8974 47.096 42.8974H48.6669V24.794H47.096C46.6845 24.794 46.3479 24.4574 46.3479 24.0459V22.475H28.2445V24.0459C28.2445 24.4574 27.9078 24.794 27.4964 24.794H25.9254V42.8974H27.4964C27.9078 42.8974 28.2445 43.2341 28.2445 43.6455ZM23.5316 44.3936V47.6103H26.7483V44.3936H23.5316ZM26.7483 23.2978V20.0811H23.5316V23.2978H26.7483Z" fill="white"/>
</g>
<defs>
<filter id="filter0_d_19_259" x="0" y="0.549316" width="73.2051" height="74.5923" filterUnits="userSpaceOnUse" color-interpolation-filters="sRGB">
<feFlood flood-opacity="0" result="BackgroundImageFix"/>
<feColorMatrix in="SourceAlpha" type="matrix" values="0 0 0 0 0 0 0 0 0 0 0 0 0 0 0 0 0 0 127 0" result="hardAlpha"/>
<feOffset dy="4"/>
<feGaussianBlur stdDeviation="2"/>
<feComposite in2="hardAlpha" operator="out"/>
<feColorMatrix type="matrix" values="0 0 0 0 0 0 0 0 0 0 0 0 0 0 0 0 0 0 0.25 0"/>
<feBlend mode="normal" in2="BackgroundImageFix" result="effect1_dropShadow_19_259"/>
<feBlend mode="normal" in="SourceGraphic" in2="effect1_dropShadow_19_259" result="shape"/>
</filter>
</defs>
</svg>
