<svg width="32" height="31" viewBox="0 0 32 31" fill="none" xmlns="http://www.w3.org/2000/svg">
<g clip-path="url(#clip0_19_382)" filter="url(#filter0_d_19_382)">
<path d="M24.0577 0.197754H8.15616C6.33978 0.197754 4.86163 1.6759 4.86163 3.49228V19.3938C4.86163 21.2107 6.33978 22.6884 8.15616 22.6884H24.0577C25.8745 22.6884 27.3523 21.2107 27.3523 19.3938V3.49228C27.3523 1.6759 25.8745 0.197754 24.0577 0.197754ZM26.0344 19.3938C26.0344 20.4837 25.1476 21.3706 24.0577 21.3706H8.15616C7.06633 21.3706 6.17944 20.4837 6.17944 19.3938V3.49228C6.17944 2.40245 7.06633 1.51556 8.15616 1.51556H24.0577C25.1476 1.51556 26.0344 2.40245 26.0344 3.49228V19.3938Z" fill="white"/>
<path d="M23.3549 2.87744C22.6284 2.87744 22.0371 3.4687 22.0371 4.19525C22.0371 4.9218 22.6284 5.51306 23.3549 5.51306C24.0815 5.51306 24.6727 4.9218 24.6727 4.19525C24.6727 3.4687 24.0815 2.87744 23.3549 2.87744Z" fill="white"/>
<path d="M16.107 5.5127C12.837 5.5127 10.1768 8.17291 10.1768 11.4428C10.1768 14.7128 12.837 17.373 16.107 17.373C19.3769 17.373 22.0371 14.7128 22.0371 11.4428C22.0371 8.17291 19.3769 5.5127 16.107 5.5127ZM16.107 16.0552C13.5636 16.0552 11.4946 13.9862 11.4946 11.4428C11.4946 8.89947 13.5636 6.83051 16.107 6.83051C18.6503 6.83051 20.7193 8.89947 20.7193 11.4428C20.7193 13.9862 18.6503 16.0552 16.107 16.0552Z" fill="white"/>
</g>
<defs>
<filter id="filter0_d_19_382" x="0.861633" y="0.197754" width="30.4906" height="30.4907" filterUnits="userSpaceOnUse" color-interpolation-filters="sRGB">
<feFlood flood-opacity="0" result="BackgroundImageFix"/>
<feColorMatrix in="SourceAlpha" type="matrix" values="0 0 0 0 0 0 0 0 0 0 0 0 0 0 0 0 0 0 127 0" result="hardAlpha"/>
<feOffset dy="4"/>
<feGaussianBlur stdDeviation="2"/>
<feComposite in2="hardAlpha" operator="out"/>
<feColorMatrix type="matrix" values="0 0 0 0 0 0 0 0 0 0 0 0 0 0 0 0 0 0 0.25 0"/>
<feBlend mode="normal" in2="BackgroundImageFix" result="effect1_dropShadow_19_382"/>
<feBlend mode="normal" in="SourceGraphic" in2="effect1_dropShadow_19_382" result="shape"/>
</filter>
<clipPath id="clip0_19_382">
<rect width="22.4906" height="22.4906" fill="white" transform="translate(4.86163 0.197754)"/>
</clipPath>
</defs>
</svg>
