<svg width="78" height="78" viewBox="0 0 78 78" fill="none" xmlns="http://www.w3.org/2000/svg">
<g filter="url(#filter0_d_19_374)">
<path fill-rule="evenodd" clip-rule="evenodd" d="M38.9893 65.9623C54.904 65.9623 67.8054 53.0609 67.8054 37.1462C67.8054 21.2315 54.904 8.33008 38.9893 8.33008C23.0746 8.33008 10.1732 21.2315 10.1732 37.1462C10.1732 53.0609 23.0746 65.9623 38.9893 65.9623Z" fill="white"/>
</g>
<path d="M51.4906 32.787C50.6542 33.09 49.7631 33.2909 48.8339 33.3884C49.7898 32.917 50.5193 32.1762 50.8623 31.2833C49.9711 31.7222 48.9871 32.0322 47.9385 32.2052C47.0923 31.461 45.8862 31 44.5705 31C42.0179 31 39.9628 32.7115 39.9628 34.8096C39.9628 35.1115 39.9937 35.4018 40.0696 35.6782C36.2364 35.5237 32.8445 34.0061 30.5659 31.6944C30.1681 32.2645 29.9348 32.917 29.9348 33.6195C29.9348 34.9385 30.7571 36.1078 31.9828 36.7847C31.242 36.7731 30.5153 36.5955 29.8996 36.3156C29.8996 36.3272 29.8996 36.3423 29.8996 36.3574C29.8996 38.2083 31.4979 39.7456 33.5937 40.0997C33.2184 40.1845 32.8093 40.2251 32.3848 40.2251C32.0896 40.2251 31.7916 40.2112 31.5119 40.1601C32.1093 41.6684 33.8046 42.7773 35.8203 42.8133C34.2516 43.8269 32.2597 44.4377 30.1034 44.4377C29.7253 44.4377 29.3627 44.4238 29 44.3854C31.0424 45.4734 33.463 46.0946 36.0733 46.0946C44.5579 46.0946 49.1966 40.289 49.1966 35.2567C49.1966 35.0883 49.1895 34.9258 49.1797 34.7644C50.0948 34.2279 50.8637 33.558 51.4906 32.787Z" fill="#080809"/>
<defs>
<filter id="filter0_d_19_374" x="0.173157" y="0.330078" width="77.6322" height="77.6323" filterUnits="userSpaceOnUse" color-interpolation-filters="sRGB">
<feFlood flood-opacity="0" result="BackgroundImageFix"/>
<feColorMatrix in="SourceAlpha" type="matrix" values="0 0 0 0 0 0 0 0 0 0 0 0 0 0 0 0 0 0 127 0" result="hardAlpha"/>
<feOffset dy="2"/>
<feGaussianBlur stdDeviation="5"/>
<feColorMatrix type="matrix" values="0 0 0 0 0 0 0 0 0 0 0 0 0 0 0 0 0 0 0.1 0"/>
<feBlend mode="normal" in2="BackgroundImageFix" result="effect1_dropShadow_19_374"/>
<feBlend mode="normal" in="SourceGraphic" in2="effect1_dropShadow_19_374" result="shape"/>
</filter>
</defs>
</svg>
